<svg width="30" height="30" viewBox="0 0 30 30" fill="none" xmlns="http://www.w3.org/2000/svg">
<path d="M0.5 10C0.5 4.47715 4.97715 0 10.5 0H29.5V30H0.5V10Z" fill="#F3BA00"/>
<path d="M5.58008 14.9395L4.71289 14.7168L5.14062 10.4688H9.51758V11.4707H6.06055L5.80273 13.791C5.95898 13.7012 6.15625 13.6172 6.39453 13.5391C6.63672 13.4609 6.91406 13.4219 7.22656 13.4219C7.62109 13.4219 7.97461 13.4902 8.28711 13.627C8.59961 13.7598 8.86523 13.9512 9.08398 14.2012C9.30664 14.4512 9.47656 14.752 9.59375 15.1035C9.71094 15.4551 9.76953 15.8477 9.76953 16.2812C9.76953 16.6914 9.71289 17.0684 9.59961 17.4121C9.49023 17.7559 9.32422 18.0566 9.10156 18.3145C8.87891 18.5684 8.59766 18.7656 8.25781 18.9062C7.92188 19.0469 7.52539 19.1172 7.06836 19.1172C6.72461 19.1172 6.39844 19.0703 6.08984 18.9766C5.78516 18.8789 5.51172 18.7324 5.26953 18.5371C5.03125 18.3379 4.83594 18.0918 4.68359 17.7988C4.53516 17.502 4.44141 17.1543 4.40234 16.7559H5.43359C5.48047 17.0762 5.57422 17.3457 5.71484 17.5645C5.85547 17.7832 6.03906 17.9492 6.26562 18.0625C6.49609 18.1719 6.76367 18.2266 7.06836 18.2266C7.32617 18.2266 7.55469 18.1816 7.75391 18.0918C7.95312 18.002 8.12109 17.873 8.25781 17.7051C8.39453 17.5371 8.49805 17.334 8.56836 17.0957C8.64258 16.8574 8.67969 16.5898 8.67969 16.293C8.67969 16.0234 8.64258 15.7734 8.56836 15.543C8.49414 15.3125 8.38281 15.1113 8.23438 14.9395C8.08984 14.7676 7.91211 14.6348 7.70117 14.541C7.49023 14.4434 7.24805 14.3945 6.97461 14.3945C6.61133 14.3945 6.33594 14.4434 6.14844 14.541C5.96484 14.6387 5.77539 14.7715 5.58008 14.9395ZM16.1705 14.0547V15.3555C16.1705 16.0547 16.108 16.6445 15.983 17.125C15.858 17.6055 15.6783 17.9922 15.4439 18.2852C15.2095 18.5781 14.9263 18.791 14.5943 18.9238C14.2662 19.0527 13.8951 19.1172 13.481 19.1172C13.1529 19.1172 12.8501 19.0762 12.5728 18.9941C12.2955 18.9121 12.0455 18.7812 11.8228 18.6016C11.604 18.418 11.4165 18.1797 11.2603 17.8867C11.104 17.5938 10.9849 17.2383 10.9029 16.8203C10.8208 16.4023 10.7798 15.9141 10.7798 15.3555V14.0547C10.7798 13.3555 10.8423 12.7695 10.9673 12.2969C11.0962 11.8242 11.2779 11.4453 11.5122 11.1602C11.7466 10.8711 12.0279 10.6641 12.356 10.5391C12.688 10.4141 13.0591 10.3516 13.4693 10.3516C13.8013 10.3516 14.106 10.3926 14.3833 10.4746C14.6646 10.5527 14.9146 10.6797 15.1333 10.8555C15.3521 11.0273 15.5376 11.2578 15.69 11.5469C15.8462 11.832 15.9654 12.1816 16.0474 12.5957C16.1294 13.0098 16.1705 13.4961 16.1705 14.0547ZM15.0806 15.5312V13.873C15.0806 13.4902 15.0572 13.1543 15.0103 12.8652C14.9673 12.5723 14.9029 12.3223 14.8169 12.1152C14.731 11.9082 14.6216 11.7402 14.4888 11.6113C14.3599 11.4824 14.2095 11.3887 14.0376 11.3301C13.8697 11.2676 13.6802 11.2363 13.4693 11.2363C13.2115 11.2363 12.983 11.2852 12.7837 11.3828C12.5845 11.4766 12.4165 11.627 12.2798 11.834C12.147 12.041 12.0455 12.3125 11.9751 12.6484C11.9048 12.9844 11.8697 13.3926 11.8697 13.873V15.5312C11.8697 15.9141 11.8912 16.252 11.9341 16.5449C11.981 16.8379 12.0494 17.0918 12.1392 17.3066C12.229 17.5176 12.3384 17.6914 12.4673 17.8281C12.5962 17.9648 12.7447 18.0664 12.9126 18.1328C13.0845 18.1953 13.274 18.2266 13.481 18.2266C13.7466 18.2266 13.979 18.1758 14.1783 18.0742C14.3775 17.9727 14.5435 17.8145 14.6763 17.5996C14.813 17.3809 14.9146 17.1016 14.981 16.7617C15.0474 16.418 15.0806 16.0078 15.0806 15.5312ZM17.3272 12.5605V12.1094C17.3272 11.7852 17.3975 11.4902 17.5382 11.2246C17.6788 10.959 17.88 10.7461 18.1417 10.5859C18.4034 10.4258 18.714 10.3457 19.0733 10.3457C19.4405 10.3457 19.753 10.4258 20.0108 10.5859C20.2725 10.7461 20.4737 10.959 20.6143 11.2246C20.755 11.4902 20.8253 11.7852 20.8253 12.1094V12.5605C20.8253 12.877 20.755 13.168 20.6143 13.4336C20.4776 13.6992 20.2784 13.9121 20.0167 14.0723C19.7589 14.2324 19.4483 14.3125 19.085 14.3125C18.7218 14.3125 18.4073 14.2324 18.1417 14.0723C17.88 13.9121 17.6788 13.6992 17.5382 13.4336C17.3975 13.168 17.3272 12.877 17.3272 12.5605ZM18.1417 12.1094V12.5605C18.1417 12.7402 18.1749 12.9102 18.2413 13.0703C18.3116 13.2305 18.4171 13.3613 18.5577 13.4629C18.6983 13.5605 18.8741 13.6094 19.085 13.6094C19.296 13.6094 19.4698 13.5605 19.6065 13.4629C19.7432 13.3613 19.8448 13.2305 19.9112 13.0703C19.9776 12.9102 20.0108 12.7402 20.0108 12.5605V12.1094C20.0108 11.9258 19.9757 11.7539 19.9054 11.5938C19.839 11.4297 19.7354 11.2988 19.5948 11.2012C19.4581 11.0996 19.2843 11.0488 19.0733 11.0488C18.8663 11.0488 18.6925 11.0996 18.5518 11.2012C18.4151 11.2988 18.3116 11.4297 18.2413 11.5938C18.1749 11.7539 18.1417 11.9258 18.1417 12.1094ZM21.4815 17.3652V16.9082C21.4815 16.5879 21.5518 16.2949 21.6925 16.0293C21.8331 15.7637 22.0343 15.5508 22.296 15.3906C22.5577 15.2305 22.8682 15.1504 23.2276 15.1504C23.5948 15.1504 23.9073 15.2305 24.1651 15.3906C24.4268 15.5508 24.628 15.7637 24.7686 16.0293C24.9093 16.2949 24.9796 16.5879 24.9796 16.9082V17.3652C24.9796 17.6855 24.9093 17.9785 24.7686 18.2441C24.6319 18.5098 24.4327 18.7227 24.171 18.8828C23.9132 19.043 23.6026 19.123 23.2393 19.123C22.8761 19.123 22.5636 19.043 22.3018 18.8828C22.0401 18.7227 21.837 18.5098 21.6925 18.2441C21.5518 17.9785 21.4815 17.6855 21.4815 17.3652ZM22.296 16.9082V17.3652C22.296 17.5449 22.3292 17.7168 22.3956 17.8809C22.4659 18.041 22.5714 18.1719 22.712 18.2734C22.8526 18.3711 23.0284 18.4199 23.2393 18.4199C23.4503 18.4199 23.6241 18.3711 23.7608 18.2734C23.9015 18.1719 24.005 18.041 24.0714 17.8809C24.1378 17.7207 24.171 17.5488 24.171 17.3652V16.9082C24.171 16.7246 24.1358 16.5527 24.0655 16.3926C23.9991 16.2324 23.8956 16.1035 23.755 16.0059C23.6182 15.9043 23.4425 15.8535 23.2276 15.8535C23.0206 15.8535 22.8468 15.9043 22.7061 16.0059C22.5694 16.1035 22.4659 16.2324 22.3956 16.3926C22.3292 16.5527 22.296 16.7246 22.296 16.9082ZM23.4972 11.6816L19.3311 18.3496L18.7218 17.9629L22.8878 11.2949L23.4972 11.6816Z" fill="#101115"/>
</svg>
